<svg width="56" height="57" viewBox="0 0 56 57" fill="none" xmlns="http://www.w3.org/2000/svg">
<g clip-path="url(#clip0_105_37)">
<path d="M18.881 38.0518H35.9506C35.9506 42.9649 34.0274 47.6768 30.6041 51.1509C27.1808 54.625 22.5379 56.5767 17.6966 56.5767H0.627014C0.627014 51.6636 2.5502 46.9517 5.97349 43.4776C9.39678 40.0035 14.0398 38.0518 18.881 38.0518Z" fill="#5BB318"/>
<path d="M18.2541 0.666504L18.2541 36.5285H17.6688C12.9828 36.5285 8.48868 34.6393 5.17514 31.2766C1.86161 27.9139 8.2016e-05 23.3531 8.2016e-05 18.5975C8.2016e-05 13.8419 1.86161 9.28108 5.17514 5.91837C8.48868 2.55566 12.9828 0.666504 17.6688 0.666504H18.2541Z" fill="#5BB318"/>
<path d="M36.7171 19.1909H19.6475C19.6475 14.2778 21.5707 9.56592 24.9939 6.09182C28.4172 2.61773 33.0602 0.666002 37.9015 0.666002L54.9711 0.666002C54.9711 5.57911 53.0479 10.291 49.6246 13.7651C46.2013 17.2392 41.5583 19.1909 36.7171 19.1909Z" fill="#5BB318"/>
<path d="M37.344 56.5752V20.7132H37.9292C42.6153 20.7132 47.1094 22.6024 50.4229 25.9651C53.7365 29.3278 55.598 33.8886 55.598 38.6442C55.598 43.3998 53.7365 47.9606 50.4229 51.3233C47.1094 54.686 42.6153 56.5752 37.9292 56.5752H37.344Z" fill="#5BB318"/>
</g>
<defs>
<clipPath id="clip0_105_37">
<rect width="55.5981" height="55.9092" fill="white" transform="translate(0 0.666504)"/>
</clipPath>
</defs>
</svg>
