<svg width="92" height="21" viewBox="0 0 92 21" fill="none" xmlns="http://www.w3.org/2000/svg">
<g clip-path="url(#clip0_52_336)">
<path d="M17.994 6.18984C17.899 5.83768 17.7135 5.51651 17.4559 5.25832C17.1983 5.00012 16.8776 4.81389 16.5256 4.71818C15.2206 4.35984 9.99979 4.35401 9.99979 4.35401C9.99979 4.35401 4.77979 4.34818 3.47395 4.69068C3.12222 4.7908 2.80214 4.97966 2.54442 5.23912C2.28671 5.49859 2.10002 5.81994 2.00229 6.17234C1.65812 7.47734 1.65479 10.184 1.65479 10.184C1.65479 10.184 1.65145 12.904 1.99312 14.1957C2.18479 14.9098 2.74729 15.474 3.46229 15.6665C4.78062 16.0248 9.98729 16.0307 9.98729 16.0307C9.98729 16.0307 15.2081 16.0365 16.5131 15.6948C16.8652 15.5993 17.1862 15.4135 17.4445 15.1558C17.7028 14.8982 17.8893 14.5775 17.9856 14.2257C18.3306 12.9215 18.3331 10.2157 18.3331 10.2157C18.3331 10.2157 18.3498 7.49484 17.994 6.18984ZM8.32979 12.6915L8.33395 7.69151L12.6731 10.1957L8.32979 12.6915Z" fill="white" fill-opacity="0.65"/>
</g>
<g clip-path="url(#clip1_52_336)">
<path d="M53.4776 5.78533C53.0906 6.3016 52.6227 6.75194 52.0921 7.11897C52.0921 7.25383 52.0921 7.38868 52.0921 7.53104C52.0964 9.98008 51.1181 12.3284 49.3767 14.0496C47.6352 15.7708 45.2762 16.7208 42.8286 16.6866C41.4136 16.6913 40.0166 16.3683 38.7472 15.7426C38.6788 15.7127 38.6347 15.645 38.6349 15.5703V15.4878C38.6349 15.3803 38.7221 15.2931 38.8296 15.2931C40.2206 15.2472 41.5619 14.7649 42.6638 13.9145C41.4048 13.8891 40.2721 13.1433 39.7507 11.9964C39.7244 11.9338 39.7326 11.8619 39.7724 11.8068C39.8121 11.7518 39.8777 11.7214 39.9454 11.7268C40.3281 11.7652 40.7145 11.7296 41.0837 11.6218C39.6939 11.3333 38.6496 10.1795 38.5001 8.76725C38.4948 8.6995 38.5252 8.63392 38.5802 8.59408C38.6353 8.55434 38.7071 8.54608 38.7697 8.5725C39.1427 8.73708 39.5453 8.82375 39.9529 8.82717C38.7351 8.02788 38.2091 6.50754 38.6724 5.12602C38.7202 4.99178 38.8351 4.8926 38.9748 4.86495C39.1145 4.83729 39.2585 4.88524 39.3538 4.99116C40.9972 6.74021 43.2553 7.78247 45.6518 7.89816C45.5905 7.65321 45.5603 7.40147 45.562 7.14893C45.5844 5.82477 46.4037 4.64518 47.6364 4.16239C48.869 3.67962 50.271 3.98919 51.1861 4.9462C51.8097 4.82738 52.4127 4.61788 52.9758 4.32434C53.0171 4.29859 53.0694 4.29859 53.1106 4.32434C53.1364 4.36561 53.1364 4.41793 53.1106 4.4592C52.8379 5.08377 52.3771 5.6076 51.7926 5.95766C52.3045 5.8983 52.8073 5.77756 53.2904 5.59803C53.3311 5.57035 53.3845 5.57035 53.4251 5.59803C53.4592 5.61362 53.4847 5.64343 53.4948 5.67952C53.5049 5.71561 53.4986 5.75432 53.4776 5.78533Z" fill="white" fill-opacity="0.65"/>
</g>
<g clip-path="url(#clip2_52_336)">
<path fill-rule="evenodd" clip-rule="evenodd" d="M76.1667 2.6875H87.8333C88.7538 2.6875 89.5 3.43369 89.5 4.35417V16.0208C89.5 16.9413 88.7538 17.6875 87.8333 17.6875H76.1667C75.2462 17.6875 74.5 16.9413 74.5 16.0208V4.35417C74.5 3.43369 75.2462 2.6875 76.1667 2.6875ZM78.6667 15.1875C78.8968 15.1875 79.0833 15.0009 79.0833 14.7708V8.9375C79.0833 8.70742 78.8968 8.52083 78.6667 8.52083H77.4167C77.1865 8.52083 77 8.70742 77 8.9375V14.7708C77 15.0009 77.1865 15.1875 77.4167 15.1875H78.6667ZM78.0417 7.6875C77.3513 7.6875 76.7917 7.12786 76.7917 6.4375C76.7917 5.74714 77.3513 5.1875 78.0417 5.1875C78.732 5.1875 79.2917 5.74714 79.2917 6.4375C79.2917 7.12786 78.732 7.6875 78.0417 7.6875ZM86.5833 15.1875C86.8134 15.1875 87 15.0009 87 14.7708V10.9375C87.0271 9.61317 86.048 8.48293 84.7333 8.32083C83.8142 8.23688 82.9236 8.66617 82.4167 9.4375V8.9375C82.4167 8.70742 82.2301 8.52083 82 8.52083H80.75C80.5199 8.52083 80.3333 8.70742 80.3333 8.9375V14.7708C80.3333 15.0009 80.5199 15.1875 80.75 15.1875H82C82.2301 15.1875 82.4167 15.0009 82.4167 14.7708V11.6458C82.4167 10.9555 82.9763 10.3958 83.6667 10.3958C84.357 10.3958 84.9167 10.9555 84.9167 11.6458V14.7708C84.9167 15.0009 85.1032 15.1875 85.3333 15.1875H86.5833Z" fill="white" fill-opacity="0.65"/>
</g>
<defs>
<clipPath id="clip0_52_336">
<rect width="20" height="20" fill="white" transform="translate(0 0.1875)"/>
</clipPath>
<clipPath id="clip1_52_336">
<rect width="20" height="20" fill="white" transform="translate(36 0.1875)"/>
</clipPath>
<clipPath id="clip2_52_336">
<rect width="20" height="20" fill="white" transform="translate(72 0.1875)"/>
</clipPath>
</defs>
</svg>
