<svg width="74" height="73" viewBox="0 0 74 73" fill="none" xmlns="http://www.w3.org/2000/svg">
<path fill-rule="evenodd" clip-rule="evenodd" d="M9.46648 2.1099C5.68854 2.1099 2.6259 5.17398 2.6259 8.9537V64.0463C2.6259 67.6874 5.46796 70.6643 9.05371 70.8778L52.0076 27.9037C52.2 27.7112 52.461 27.6031 52.7332 27.6031C53.0053 27.6031 53.2663 27.7112 53.4587 27.9037L71.3737 45.8272V8.9537C71.3737 5.17398 68.3111 2.1099 64.5331 2.1099H9.46648ZM73.4259 48.3035V8.9537C73.4259 4.04006 69.4445 0.0567627 64.5331 0.0567627H9.46648C4.55515 0.0567627 0.57373 4.04006 0.57373 8.9537V64.0463C0.57373 68.9599 4.55515 72.9432 9.46648 72.9432H64.5331C69.4445 72.9432 73.4259 68.9599 73.4259 64.0463V48.3076C73.4259 48.3062 73.4259 48.3049 73.4259 48.3035ZM71.3737 48.7308L52.7332 30.0814L11.9437 70.8901H64.5331C68.3111 70.8901 71.3737 67.826 71.3737 64.0463V48.7308ZM23.2331 17.8506C20.5414 17.8506 18.3592 20.0338 18.3592 22.7269C18.3592 25.4199 20.5414 27.6031 23.2331 27.6031C25.9249 27.6031 28.1071 25.4199 28.1071 22.7269C28.1071 20.0338 25.9249 17.8506 23.2331 17.8506ZM16.3071 22.7269C16.3071 18.8999 19.408 15.7975 23.2331 15.7975C27.0583 15.7975 30.1592 18.8999 30.1592 22.7269C30.1592 26.5538 27.0583 29.6562 23.2331 29.6562C19.408 29.6562 16.3071 26.5538 16.3071 22.7269Z" fill="#1A4D2E"/>
</svg>
