<svg width="74" height="69" viewBox="0 0 74 69" fill="none" xmlns="http://www.w3.org/2000/svg">
<path fill-rule="evenodd" clip-rule="evenodd" d="M9.46648 2.09549C5.68854 2.09549 2.6259 4.98266 2.6259 8.54416V60.456C2.6259 63.8868 5.46796 66.6919 9.05371 66.8931L52.0076 26.4001C52.2 26.2187 52.461 26.1168 52.7332 26.1168C53.0053 26.1168 53.2663 26.2187 53.4587 26.4001L71.3737 43.2887V8.54416C71.3737 4.98266 68.3111 2.09549 64.5331 2.09549H9.46648ZM73.4259 45.6221V8.54416C73.4259 3.91421 69.4445 0.160889 64.5331 0.160889H9.46648C4.55515 0.160889 0.57373 3.91421 0.57373 8.54416V60.456C0.57373 65.0859 4.55515 68.8392 9.46648 68.8392H64.5331C69.4445 68.8392 73.4259 65.0859 73.4259 60.456V45.6259C73.4259 45.6247 73.4259 45.6234 73.4259 45.6221ZM71.3737 46.0247L52.7332 28.4521L11.9437 66.9046H64.5331C68.3111 66.9046 71.3737 64.0175 71.3737 60.456V46.0247ZM23.2331 16.9274C20.5414 16.9274 18.3592 18.9845 18.3592 21.5221C18.3592 24.0597 20.5414 26.1168 23.2331 26.1168C25.9249 26.1168 28.1071 24.0597 28.1071 21.5221C28.1071 18.9845 25.9249 16.9274 23.2331 16.9274ZM16.3071 21.5221C16.3071 17.9161 19.408 14.9928 23.2331 14.9928C27.0583 14.9928 30.1592 17.9161 30.1592 21.5221C30.1592 25.1281 27.0583 28.0514 23.2331 28.0514C19.408 28.0514 16.3071 25.1281 16.3071 21.5221Z" fill="#1A4D2E"/>
</svg>
