<svg width="100" height="95" viewBox="0 0 100 95" fill="none" xmlns="http://www.w3.org/2000/svg">
<path fill-rule="evenodd" clip-rule="evenodd" d="M12.6669 3.5616C7.54421 3.5616 3.39149 7.47641 3.39149 12.3056V82.6945C3.39149 87.3464 7.24512 91.1499 12.1072 91.4228L70.3497 36.517C70.6106 36.271 70.9645 36.1329 71.3335 36.1329C71.7025 36.1329 72.0564 36.271 72.3173 36.517L96.6089 59.4169V12.3056C96.6089 7.47641 92.4561 3.5616 87.3335 3.5616H12.6669ZM99.3915 62.5808V12.3056C99.3915 6.02766 93.9929 0.938416 87.3335 0.938416H12.6669C6.00742 0.938416 0.608887 6.02766 0.608887 12.3056V82.6945C0.608887 88.9723 6.00742 94.0616 12.6669 94.0616H87.3335C93.9929 94.0616 99.3915 88.9723 99.3915 82.6945V62.5859C99.3915 62.5842 99.3915 62.5825 99.3915 62.5808ZM96.6089 63.1266L71.3335 39.2993L16.0258 91.4384H87.3335C92.4561 91.4384 96.6089 87.5236 96.6089 82.6945V63.1266ZM31.3335 23.6727C27.6836 23.6727 24.7248 26.462 24.7248 29.9028C24.7248 33.3436 27.6836 36.1329 31.3335 36.1329C34.9834 36.1329 37.9422 33.3436 37.9422 29.9028C37.9422 26.462 34.9834 23.6727 31.3335 23.6727ZM21.9422 29.9028C21.9422 25.0133 26.1468 21.0495 31.3335 21.0495C36.5202 21.0495 40.7248 25.0133 40.7248 29.9028C40.7248 34.7923 36.5202 38.756 31.3335 38.756C26.1468 38.756 21.9422 34.7923 21.9422 29.9028Z" fill="#1A4D2E"/>
</svg>
